<mxfile modified="2024-02-15T14:08:41.515Z" host="Electron" agent="Mozilla/5.0 (Windows NT 10.0; Win64; x64) AppleWebKit/537.36 (KHTML, like Gecko) draw.io/23.0.2 Chrome/120.0.6099.109 Electron/28.1.0 Safari/537.36" etag="vUPEQdPH5QNOVmECL-7n" version="23.0.2" type="device" pages="2">
  <diagram id="Ht1M8jgEwFfnCIfOTk4-" name="Page-1">
    <mxGraphModel dx="864" dy="516" grid="0" gridSize="10" guides="1" tooltips="1" connect="1" arrows="1" fold="1" page="1" pageScale="1" pageWidth="1169" pageHeight="827" math="0" shadow="0">
      <root>
        <mxCell id="0" />
        <mxCell id="1" parent="0" />
        <mxCell id="UEzPUAAOIrF-is8g5C7q-128" style="edgeStyle=orthogonalEdgeStyle;rounded=0;orthogonalLoop=1;jettySize=auto;html=1;startArrow=open;startFill=0;endArrow=open;endFill=0;strokeWidth=2;strokeColor=#808080;" parent="1" edge="1">
          <mxGeometry relative="1" as="geometry">
            <Array as="points">
              <mxPoint x="510.5" y="471.5" />
              <mxPoint x="510.5" y="386.5" />
            </Array>
            <mxPoint x="460.5000000000002" y="471" as="sourcePoint" />
            <mxPoint x="569.4999999999998" y="386.42857142857156" as="targetPoint" />
          </mxGeometry>
        </mxCell>
        <mxCell id="UEzPUAAOIrF-is8g5C7q-127" style="edgeStyle=orthogonalEdgeStyle;rounded=0;orthogonalLoop=1;jettySize=auto;html=1;startArrow=open;startFill=0;endArrow=open;endFill=0;strokeWidth=2;strokeColor=#808080;" parent="1" source="UEzPUAAOIrF-is8g5C7q-110" edge="1">
          <mxGeometry relative="1" as="geometry">
            <Array as="points">
              <mxPoint x="511.5" y="291.5" />
              <mxPoint x="511.5" y="371.5" />
            </Array>
            <mxPoint x="569.4999999999998" y="371.42857142857156" as="targetPoint" />
          </mxGeometry>
        </mxCell>
        <mxCell id="UEzPUAAOIrF-is8g5C7q-110" value="iOS" style="outlineConnect=0;gradientColor=none;fontColor=#545B64;strokeColor=none;fillColor=#879196;dashed=0;verticalLabelPosition=bottom;verticalAlign=top;align=center;html=1;fontSize=12;fontStyle=0;aspect=fixed;shape=mxgraph.aws4.illustration_notification;pointerEvents=1;labelBackgroundColor=#ffffff;" parent="1" vertex="1">
          <mxGeometry x="360.5" y="231.5" width="100" height="81" as="geometry" />
        </mxCell>
        <mxCell id="UEzPUAAOIrF-is8g5C7q-119" value="Database" style="outlineConnect=0;fontColor=#232F3E;gradientColor=#4D72F3;gradientDirection=north;fillColor=#3334B9;strokeColor=#ffffff;dashed=0;verticalLabelPosition=bottom;verticalAlign=top;align=center;html=1;fontSize=12;fontStyle=0;aspect=fixed;shape=mxgraph.aws4.resourceIcon;resIcon=mxgraph.aws4.dynamodb;labelBackgroundColor=#ffffff;spacingTop=5;" parent="1" vertex="1">
          <mxGeometry x="800.5" y="343" width="74.5" height="74.5" as="geometry" />
        </mxCell>
        <mxCell id="suukIORrcE_f7hbrqYaW-2" value="Androïd" style="outlineConnect=0;gradientColor=none;fontColor=#545B64;strokeColor=none;fillColor=#879196;dashed=0;verticalLabelPosition=bottom;verticalAlign=top;align=center;html=1;fontSize=12;fontStyle=0;aspect=fixed;shape=mxgraph.aws4.illustration_notification;pointerEvents=1;labelBackgroundColor=#ffffff;" parent="1" vertex="1">
          <mxGeometry x="357.5" y="417.5" width="100" height="81" as="geometry" />
        </mxCell>
        <mxCell id="suukIORrcE_f7hbrqYaW-5" value="API &lt;br&gt;Gateway" style="outlineConnect=0;dashed=0;verticalLabelPosition=bottom;verticalAlign=top;align=center;html=1;shape=mxgraph.aws3.android;fillColor=#8CC64F;gradientColor=none;" parent="1" vertex="1">
          <mxGeometry x="584" y="340" width="73.5" height="84" as="geometry" />
        </mxCell>
        <mxCell id="suukIORrcE_f7hbrqYaW-7" value="" style="dashed=0;outlineConnect=0;html=1;align=center;labelPosition=center;verticalLabelPosition=bottom;verticalAlign=top;shape=mxgraph.webicons.arduino;gradientColor=#DFDEDE" parent="1" vertex="1">
          <mxGeometry x="1014" y="157" width="74.5" height="74.5" as="geometry" />
        </mxCell>
        <mxCell id="suukIORrcE_f7hbrqYaW-9" value="" style="image;aspect=fixed;perimeter=ellipsePerimeter;html=1;align=center;shadow=0;dashed=0;spacingTop=3;image=img/lib/active_directory/home.svg;" parent="1" vertex="1">
          <mxGeometry x="800.5" y="157" width="76.8" height="74.5" as="geometry" />
        </mxCell>
        <mxCell id="suukIORrcE_f7hbrqYaW-10" value="" style="endArrow=classic;html=1;rounded=0;strokeColor=#808080;exitX=0;exitY=0.5;exitDx=0;exitDy=0;entryX=0.5;entryY=0;entryDx=0;entryDy=0;entryPerimeter=0;" parent="1" source="suukIORrcE_f7hbrqYaW-9" target="suukIORrcE_f7hbrqYaW-5" edge="1">
          <mxGeometry width="50" height="50" relative="1" as="geometry">
            <mxPoint x="792" y="193.42" as="sourcePoint" />
            <mxPoint x="649" y="193.42" as="targetPoint" />
            <Array as="points">
              <mxPoint x="621" y="193" />
            </Array>
          </mxGeometry>
        </mxCell>
        <mxCell id="suukIORrcE_f7hbrqYaW-11" value="" style="endArrow=classic;html=1;rounded=0;strokeColor=#808080;" parent="1" edge="1">
          <mxGeometry width="50" height="50" relative="1" as="geometry">
            <mxPoint x="1012" y="193.42" as="sourcePoint" />
            <mxPoint x="869" y="193.42" as="targetPoint" />
          </mxGeometry>
        </mxCell>
        <mxCell id="suukIORrcE_f7hbrqYaW-12" value="" style="endArrow=classic;startArrow=classic;html=1;rounded=0;exitX=1;exitY=0.5;exitDx=0;exitDy=0;exitPerimeter=0;strokeColor=#808080;" parent="1" source="suukIORrcE_f7hbrqYaW-5" target="UEzPUAAOIrF-is8g5C7q-119" edge="1">
          <mxGeometry width="50" height="50" relative="1" as="geometry">
            <mxPoint x="415" y="433" as="sourcePoint" />
            <mxPoint x="465" y="383" as="targetPoint" />
          </mxGeometry>
        </mxCell>
      </root>
    </mxGraphModel>
  </diagram>
  <diagram id="Dqg5fY0APQ167PAE8dVv" name="Page-2">
    <mxGraphModel dx="1100" dy="665" grid="0" gridSize="10" guides="1" tooltips="1" connect="1" arrows="1" fold="1" page="1" pageScale="1" pageWidth="1169" pageHeight="1654" background="none" math="0" shadow="0">
      <root>
        <mxCell id="0" />
        <mxCell id="1" parent="0" />
        <mxCell id="7GZBc4e9iCD9CBo6OQbq-1" value="&lt;p style=&quot;margin:0px;margin-top:4px;text-align:center;&quot;&gt;&lt;b&gt;Block1&lt;/b&gt;&lt;/p&gt;&lt;hr&gt;&lt;p style=&quot;font-size:10px;margin:0px;text-align:center;&quot;&gt;&lt;i&gt;Intérieur&lt;/i&gt;&lt;/p&gt;" style="shape=rect;html=1;overflow=fill;whiteSpace=wrap;rounded=0;" vertex="1" parent="1">
          <mxGeometry x="538" y="351" width="541" height="432" as="geometry" />
        </mxCell>
        <mxCell id="7GZBc4e9iCD9CBo6OQbq-46" style="edgeStyle=orthogonalEdgeStyle;rounded=0;orthogonalLoop=1;jettySize=auto;html=1;exitX=0;exitY=0.5;exitDx=0;exitDy=0;endArrow=none;endFill=0;startArrow=box;startFill=0;" edge="1" parent="1" source="7GZBc4e9iCD9CBo6OQbq-2">
          <mxGeometry relative="1" as="geometry">
            <mxPoint x="537.1578947368421" y="571.578947368421" as="targetPoint" />
            <Array as="points">
              <mxPoint x="561" y="478" />
              <mxPoint x="561" y="568" />
              <mxPoint x="537" y="568" />
            </Array>
          </mxGeometry>
        </mxCell>
        <mxCell id="7GZBc4e9iCD9CBo6OQbq-2" value="&lt;p style=&quot;margin:0px;margin-top:4px;text-align:center;&quot;&gt;&lt;b&gt;&amp;lt;&amp;lt;block&amp;gt;&amp;gt;&lt;/b&gt;&lt;/p&gt;&lt;hr&gt;&lt;p style=&quot;font-size:10px;margin:0px;text-align:center;&quot;&gt;&lt;i&gt;Fumée&lt;/i&gt;&lt;/p&gt;" style="shape=rect;html=1;overflow=fill;whiteSpace=wrap;rounded=0;" vertex="1" parent="1">
          <mxGeometry x="631" y="412" width="181" height="141" as="geometry" />
        </mxCell>
        <mxCell id="7GZBc4e9iCD9CBo6OQbq-12" value="&lt;p style=&quot;margin: 4px 0px 0px; font-size: 11px;&quot;&gt;&lt;b style=&quot;&quot;&gt;&lt;font style=&quot;font-size: 11px;&quot;&gt;Capteur : capteur fumée&lt;/font&gt;&lt;/b&gt;&lt;/p&gt;&lt;hr style=&quot;font-size: 11px;&quot;&gt;&lt;p style=&quot;font-size: 11px; margin: 4px 0px 0px;&quot;&gt;&lt;br&gt;&lt;/p&gt;" style="shape=rect;html=1;overflow=fill;whiteSpace=wrap;align=center;rounded=0;" vertex="1" parent="1">
          <mxGeometry x="669" y="460" width="127" height="70" as="geometry" />
        </mxCell>
        <mxCell id="7GZBc4e9iCD9CBo6OQbq-49" style="edgeStyle=orthogonalEdgeStyle;rounded=0;orthogonalLoop=1;jettySize=auto;html=1;exitX=0;exitY=0.5;exitDx=0;exitDy=0;endArrow=none;endFill=0;startArrow=box;startFill=0;" edge="1" parent="1" source="7GZBc4e9iCD9CBo6OQbq-13">
          <mxGeometry relative="1" as="geometry">
            <mxPoint x="841.3684210526317" y="602.1052631578948" as="targetPoint" />
          </mxGeometry>
        </mxCell>
        <mxCell id="7GZBc4e9iCD9CBo6OQbq-13" value="&lt;p style=&quot;margin:0px;margin-top:4px;text-align:center;&quot;&gt;&lt;b&gt;&amp;lt;&amp;lt;block&amp;gt;&amp;gt;&lt;/b&gt;&lt;/p&gt;&lt;hr&gt;&lt;p style=&quot;font-size:10px;margin:0px;text-align:center;&quot;&gt;&lt;i&gt;Flamme&lt;/i&gt;&lt;/p&gt;" style="shape=rect;html=1;overflow=fill;whiteSpace=wrap;rounded=0;" vertex="1" parent="1">
          <mxGeometry x="893" y="407" width="165" height="146" as="geometry" />
        </mxCell>
        <mxCell id="7GZBc4e9iCD9CBo6OQbq-54" style="edgeStyle=orthogonalEdgeStyle;rounded=0;orthogonalLoop=1;jettySize=auto;html=1;exitX=0;exitY=0.25;exitDx=0;exitDy=0;entryX=0;entryY=0.5;entryDx=0;entryDy=0;endArrow=none;endFill=0;startArrow=box;startFill=0;" edge="1" parent="1" source="7GZBc4e9iCD9CBo6OQbq-14" target="7GZBc4e9iCD9CBo6OQbq-13">
          <mxGeometry relative="1" as="geometry" />
        </mxCell>
        <mxCell id="7GZBc4e9iCD9CBo6OQbq-14" value="&lt;p style=&quot;margin: 4px 0px 0px; font-size: 11px;&quot;&gt;&lt;b style=&quot;&quot;&gt;&lt;font style=&quot;font-size: 11px;&quot;&gt;Capteur : capteur flamme&lt;/font&gt;&lt;/b&gt;&lt;/p&gt;&lt;hr style=&quot;font-size: 11px;&quot;&gt;&lt;p style=&quot;font-size: 11px; margin: 4px 0px 0px;&quot;&gt;&lt;br&gt;&lt;/p&gt;" style="shape=rect;html=1;overflow=fill;whiteSpace=wrap;align=center;rounded=0;" vertex="1" parent="1">
          <mxGeometry x="917" y="463" width="127" height="70" as="geometry" />
        </mxCell>
        <mxCell id="7GZBc4e9iCD9CBo6OQbq-48" style="edgeStyle=orthogonalEdgeStyle;rounded=0;orthogonalLoop=1;jettySize=auto;html=1;exitX=0;exitY=0.5;exitDx=0;exitDy=0;endArrow=none;endFill=0;startArrow=box;startFill=0;" edge="1" parent="1" source="7GZBc4e9iCD9CBo6OQbq-15">
          <mxGeometry relative="1" as="geometry">
            <mxPoint x="561.3684210526317" y="558.9473684210527" as="targetPoint" />
            <Array as="points">
              <mxPoint x="841" y="695" />
              <mxPoint x="841" y="569" />
              <mxPoint x="561" y="569" />
            </Array>
          </mxGeometry>
        </mxCell>
        <mxCell id="7GZBc4e9iCD9CBo6OQbq-15" value="&lt;p style=&quot;margin:0px;margin-top:4px;text-align:center;&quot;&gt;&lt;b&gt;&amp;lt;&amp;lt;block&amp;gt;&amp;gt;&lt;/b&gt;&lt;/p&gt;&lt;hr&gt;&lt;p style=&quot;font-size:10px;margin:0px;text-align:center;&quot;&gt;&lt;i&gt;Chaleur&lt;/i&gt;&lt;/p&gt;" style="shape=rect;html=1;overflow=fill;whiteSpace=wrap;rounded=0;" vertex="1" parent="1">
          <mxGeometry x="889" y="629" width="154" height="132" as="geometry" />
        </mxCell>
        <mxCell id="7GZBc4e9iCD9CBo6OQbq-55" style="edgeStyle=orthogonalEdgeStyle;rounded=0;orthogonalLoop=1;jettySize=auto;html=1;exitX=0;exitY=0.25;exitDx=0;exitDy=0;entryX=0;entryY=0.5;entryDx=0;entryDy=0;endArrow=none;endFill=0;startArrow=box;startFill=0;" edge="1" parent="1" source="7GZBc4e9iCD9CBo6OQbq-16" target="7GZBc4e9iCD9CBo6OQbq-15">
          <mxGeometry relative="1" as="geometry" />
        </mxCell>
        <mxCell id="7GZBc4e9iCD9CBo6OQbq-16" value="&lt;p style=&quot;margin: 4px 0px 0px; font-size: 11px;&quot;&gt;&lt;b style=&quot;&quot;&gt;&lt;font style=&quot;font-size: 11px;&quot;&gt;Capteur : capteur chaleur&lt;/font&gt;&lt;/b&gt;&lt;/p&gt;&lt;hr style=&quot;font-size: 11px;&quot;&gt;&lt;p style=&quot;font-size: 11px; margin: 4px 0px 0px;&quot;&gt;&lt;br&gt;&lt;/p&gt;" style="shape=rect;html=1;overflow=fill;whiteSpace=wrap;align=center;rounded=0;" vertex="1" parent="1">
          <mxGeometry x="906.5" y="678" width="127" height="70" as="geometry" />
        </mxCell>
        <mxCell id="7GZBc4e9iCD9CBo6OQbq-47" style="edgeStyle=orthogonalEdgeStyle;rounded=0;orthogonalLoop=1;jettySize=auto;html=1;exitX=0;exitY=0.5;exitDx=0;exitDy=0;endArrow=none;endFill=0;startArrow=box;startFill=0;" edge="1" parent="1" source="7GZBc4e9iCD9CBo6OQbq-17">
          <mxGeometry relative="1" as="geometry">
            <mxPoint x="560.3157894736844" y="561.0526315789475" as="targetPoint" />
          </mxGeometry>
        </mxCell>
        <mxCell id="7GZBc4e9iCD9CBo6OQbq-17" value="&lt;p style=&quot;margin:0px;margin-top:4px;text-align:center;&quot;&gt;&lt;b&gt;&amp;lt;&amp;lt;block&amp;gt;&amp;gt;&lt;/b&gt;&lt;/p&gt;&lt;hr&gt;&lt;p style=&quot;font-size:10px;margin:0px;text-align:center;&quot;&gt;&lt;i&gt;Extincteur&lt;/i&gt;&lt;/p&gt;" style="shape=rect;html=1;overflow=fill;whiteSpace=wrap;rounded=0;" vertex="1" parent="1">
          <mxGeometry x="627" y="605" width="154" height="166" as="geometry" />
        </mxCell>
        <mxCell id="7GZBc4e9iCD9CBo6OQbq-51" style="edgeStyle=orthogonalEdgeStyle;rounded=0;orthogonalLoop=1;jettySize=auto;html=1;exitX=0;exitY=0.5;exitDx=0;exitDy=0;entryX=0;entryY=0.5;entryDx=0;entryDy=0;endArrow=none;endFill=0;startArrow=box;startFill=0;" edge="1" parent="1" source="7GZBc4e9iCD9CBo6OQbq-18" target="7GZBc4e9iCD9CBo6OQbq-17">
          <mxGeometry relative="1" as="geometry" />
        </mxCell>
        <mxCell id="7GZBc4e9iCD9CBo6OQbq-18" value="&lt;p style=&quot;margin: 4px 0px 0px; font-size: 11px;&quot;&gt;&lt;b style=&quot;&quot;&gt;&lt;font style=&quot;font-size: 11px;&quot;&gt;extincteur&lt;/font&gt;&lt;/b&gt;&lt;/p&gt;&lt;hr style=&quot;font-size: 11px;&quot;&gt;&lt;p style=&quot;font-size: 11px; margin: 4px 0px 0px;&quot;&gt;&lt;br&gt;&lt;/p&gt;" style="shape=rect;html=1;overflow=fill;whiteSpace=wrap;align=center;rounded=0;" vertex="1" parent="1">
          <mxGeometry x="645" y="655" width="127" height="70" as="geometry" />
        </mxCell>
        <mxCell id="7GZBc4e9iCD9CBo6OQbq-20" value="&lt;p style=&quot;margin:0px;margin-top:4px;text-align:center;&quot;&gt;&lt;b&gt;&amp;lt;&amp;lt;block&amp;gt;&amp;gt;&lt;/b&gt;&lt;/p&gt;&lt;hr&gt;&lt;p style=&quot;font-size:10px;margin:0px;text-align:center;&quot;&gt;&lt;i&gt;Controlleur&lt;/i&gt;&lt;/p&gt;" style="shape=rect;html=1;overflow=fill;whiteSpace=wrap;rounded=0;" vertex="1" parent="1">
          <mxGeometry x="46" y="408" width="201" height="132" as="geometry" />
        </mxCell>
        <mxCell id="7GZBc4e9iCD9CBo6OQbq-57" style="edgeStyle=orthogonalEdgeStyle;rounded=0;orthogonalLoop=1;jettySize=auto;html=1;exitX=1;exitY=0.5;exitDx=0;exitDy=0;elbow=vertical;curved=0;endArrow=none;endFill=0;" edge="1" parent="1" source="7GZBc4e9iCD9CBo6OQbq-21">
          <mxGeometry relative="1" as="geometry">
            <mxPoint x="276" y="482" as="targetPoint" />
            <Array as="points">
              <mxPoint x="392" y="739" />
              <mxPoint x="392" y="522" />
              <mxPoint x="326" y="522" />
              <mxPoint x="326" y="482" />
              <mxPoint x="286" y="482" />
            </Array>
          </mxGeometry>
        </mxCell>
        <mxCell id="7GZBc4e9iCD9CBo6OQbq-21" value="&lt;p style=&quot;margin:0px;margin-top:4px;text-align:center;&quot;&gt;&lt;b&gt;&amp;lt;&amp;lt;block&amp;gt;&amp;gt;&lt;/b&gt;&lt;/p&gt;&lt;hr&gt;&lt;p style=&quot;font-size:10px;margin:0px;text-align:center;&quot;&gt;&lt;i&gt;User&lt;/i&gt;&lt;/p&gt;" style="shape=rect;html=1;overflow=fill;whiteSpace=wrap;rounded=0;" vertex="1" parent="1">
          <mxGeometry x="54" y="594" width="318" height="290" as="geometry" />
        </mxCell>
        <mxCell id="7GZBc4e9iCD9CBo6OQbq-56" style="edgeStyle=orthogonalEdgeStyle;rounded=0;orthogonalLoop=1;jettySize=auto;html=1;exitX=1;exitY=0.75;exitDx=0;exitDy=0;entryX=1;entryY=0.75;entryDx=0;entryDy=0;endArrow=box;endFill=0;startArrow=box;startFill=0;" edge="1" parent="1" source="7GZBc4e9iCD9CBo6OQbq-22" target="7GZBc4e9iCD9CBo6OQbq-20">
          <mxGeometry relative="1" as="geometry">
            <Array as="points">
              <mxPoint x="237" y="513" />
              <mxPoint x="237" y="507" />
            </Array>
          </mxGeometry>
        </mxCell>
        <mxCell id="7GZBc4e9iCD9CBo6OQbq-22" value="&lt;p style=&quot;margin: 4px 0px 0px; font-size: 11px;&quot;&gt;&lt;b&gt;Interieur : controlleur&lt;/b&gt;&lt;/p&gt;&lt;hr style=&quot;font-size: 11px;&quot;&gt;&lt;p style=&quot;font-size: 11px; margin: 4px 0px 0px;&quot;&gt;&lt;br&gt;&lt;/p&gt;" style="shape=rect;html=1;overflow=fill;whiteSpace=wrap;align=center;rounded=0;" vertex="1" parent="1">
          <mxGeometry x="59" y="460" width="127" height="70" as="geometry" />
        </mxCell>
        <mxCell id="7GZBc4e9iCD9CBo6OQbq-42" style="edgeStyle=orthogonalEdgeStyle;rounded=0;orthogonalLoop=1;jettySize=auto;html=1;exitX=1;exitY=0.75;exitDx=0;exitDy=0;endArrow=box;endFill=0;startArrow=box;startFill=0;" edge="1" parent="1">
          <mxGeometry relative="1" as="geometry">
            <mxPoint x="371" y="739" as="targetPoint" />
            <mxPoint x="251" y="722.5" as="sourcePoint" />
            <Array as="points">
              <mxPoint x="312" y="723" />
              <mxPoint x="312" y="739" />
            </Array>
          </mxGeometry>
        </mxCell>
        <mxCell id="7GZBc4e9iCD9CBo6OQbq-23" value="&lt;p style=&quot;margin: 4px 0px 0px; font-size: 11px;&quot;&gt;&lt;b&gt;API Gateway&lt;/b&gt;&lt;/p&gt;&lt;hr style=&quot;font-size: 11px;&quot;&gt;&lt;p style=&quot;font-size: 11px; margin: 4px 0px 0px;&quot;&gt;&lt;br&gt;&lt;/p&gt;" style="shape=rect;html=1;overflow=fill;whiteSpace=wrap;align=center;rounded=0;" vertex="1" parent="1">
          <mxGeometry x="123" y="670" width="127" height="70" as="geometry" />
        </mxCell>
        <mxCell id="7GZBc4e9iCD9CBo6OQbq-59" style="edgeStyle=orthogonalEdgeStyle;rounded=0;orthogonalLoop=1;jettySize=auto;html=1;exitX=1;exitY=0.5;exitDx=0;exitDy=0;endArrow=none;endFill=0;startArrow=box;startFill=0;" edge="1" parent="1" source="7GZBc4e9iCD9CBo6OQbq-25">
          <mxGeometry relative="1" as="geometry">
            <mxPoint x="311.89473684210543" y="734.7368421052631" as="targetPoint" />
          </mxGeometry>
        </mxCell>
        <mxCell id="7GZBc4e9iCD9CBo6OQbq-25" value="&lt;p style=&quot;margin: 4px 0px 0px; font-size: 11px;&quot;&gt;&lt;b&gt;Interface Utilisateur&lt;/b&gt;&lt;/p&gt;&lt;hr style=&quot;font-size: 11px;&quot;&gt;&lt;p style=&quot;font-size: 11px; margin: 4px 0px 0px;&quot;&gt;&lt;br&gt;&lt;/p&gt;" style="shape=rect;html=1;overflow=fill;whiteSpace=wrap;align=center;rounded=0;" vertex="1" parent="1">
          <mxGeometry x="123" y="761" width="127" height="70" as="geometry" />
        </mxCell>
        <mxCell id="7GZBc4e9iCD9CBo6OQbq-53" style="edgeStyle=orthogonalEdgeStyle;rounded=0;orthogonalLoop=1;jettySize=auto;html=1;exitX=0;exitY=0.25;exitDx=0;exitDy=0;endArrow=none;endFill=0;startArrow=box;startFill=0;" edge="1" parent="1" source="7GZBc4e9iCD9CBo6OQbq-12">
          <mxGeometry relative="1" as="geometry">
            <mxPoint x="635" y="477" as="targetPoint" />
          </mxGeometry>
        </mxCell>
        <mxCell id="7GZBc4e9iCD9CBo6OQbq-37" style="edgeStyle=orthogonalEdgeStyle;rounded=0;orthogonalLoop=1;jettySize=auto;html=1;entryX=0;entryY=0.5;entryDx=0;entryDy=0;endArrow=box;endFill=0;startArrow=none;startFill=0;" edge="1" parent="1" target="7GZBc4e9iCD9CBo6OQbq-1">
          <mxGeometry relative="1" as="geometry">
            <mxPoint x="248" y="511" as="sourcePoint" />
            <Array as="points">
              <mxPoint x="248" y="507" />
              <mxPoint x="285" y="507" />
              <mxPoint x="285" y="564" />
              <mxPoint x="538" y="564" />
            </Array>
          </mxGeometry>
        </mxCell>
        <mxCell id="7GZBc4e9iCD9CBo6OQbq-58" value="" style="endArrow=none;html=1;rounded=0;" edge="1" parent="1">
          <mxGeometry width="50" height="50" relative="1" as="geometry">
            <mxPoint x="249" y="505" as="sourcePoint" />
            <mxPoint x="277" y="482" as="targetPoint" />
          </mxGeometry>
        </mxCell>
      </root>
    </mxGraphModel>
  </diagram>
</mxfile>
